<svg id="Layer_1" data-name="Layer 1" xmlns="http://www.w3.org/2000/svg" viewBox="0 0 329.36 391.51"><title>1q</title><path d="M500.05,649.83c0,6.83,0,13.66,0,20.5,0,1.32.13,2.66.25,4,0,.29.3.55.46.82.34-.25.87-.44,1-.78a22.59,22.59,0,0,0,1-3.35c2.18-10.07,8.22-17.32,16.76-22.66,9.07-5.66,18.45-10.69,28.86-13.49a12.48,12.48,0,0,1,3.39-.73c8.82.22,17.65.32,26.45.94,3.23.23,6.44,1.57,9.53,2.75,4.66,1.78,9.24,3.79,13.79,5.85,5.68,2.58,8.16,7.09,7.6,13.29-.12,1.33-.12,2.67-.29,4-1.23,9.84-5.53,15-15.17,17.52-7.41,1.93-14.93,3.43-22.41,5.1-1,.22-2,.19-2.94.49-1.58.49-1.64,1.69-.62,2.66a36,36,0,0,0,4,3c5.78,4.2,11.55,8.42,17.36,12.59,3.65,2.63,7.26,5.32,11.07,7.69,2.78,1.73,3.64,1.26,4.88-1.74a25.77,25.77,0,0,0,1.12-3.31c2-7.79,5.35-15,9-22.15a216.93,216.93,0,0,0,8.87-20.1c2.28-5.75,1.14-11.55-1.38-16.95a22.69,22.69,0,0,0-5.21-7.27c-7.82-6.89-13.89-15.25-20.35-23.29-1.88-2.34-3.83-4.61-5.68-7a3.55,3.55,0,0,0-4.36-1.43c-8.75,3.1-15.43-.39-21.59-6.41-5.1-5-9.68-10.12-10.78-17.5-.15-1-.34-2-.41-3-.59-8.89,3.59-13.5,12.45-13.72,5.09-.13,4.54-.42,6.89-4.95,2.77-5.36,2.68-10.06-.48-15a1.13,1.13,0,0,1-.2-.45c-.11-1.41-.2-2.81-.3-4.22,1,.93,2.09,1.79,3,2.79.67.73,1.1,1.67,1.72,2.45a3.09,3.09,0,0,0,4.43.8,23.92,23.92,0,0,0,3.54-2.74,16.76,16.76,0,0,1,14.75-4.4c4.24.63,4.33.61,5.38-3.66,1.34-5.42,3.38-10.32,7.4-14.47,4.39-4.52,12.17-5.92,17.64-2.55a15,15,0,0,1,7,9.36,106.31,106.31,0,0,1,2.29,13.75c.47,4.52.32,4.31,4.83,5.82a7.61,7.61,0,0,1,4.08,3.91c2.7,6.51,5,13.06.81,20.07-1,1.68-.4,4.49-.14,6.73.58,5.1,2.59,8.66,8.42,9.93,3.9.86,7.48,3.54,11,5.71A22.7,22.7,0,0,1,678,606.65a15.25,15.25,0,0,1-2.63,16c-6.14,7.28-13.72,11.69-23.74,9.21-2.45-.61-3.93-.06-5.43,2.09a15.37,15.37,0,0,1-5,4c-4.23,2.42-4.35,6.35-4.2,10.45.13,3.66,2.36,5.44,5.5,6.94,7.06,3.34,14.39,6.27,20.47,11.39,1,.86,2.1,1.64,3.07,2.55,6.06,5.7,12,11.5,18.16,17.13a64.08,64.08,0,0,1,13.08,16.92c2.53,4.67,3.2,4.9,6.73,1.31,4.63-4.71,9-9.66,13.42-14.6s8.68-9.66,12.65-14.77a69.08,69.08,0,0,0,7.12-11.3c1.33-2.64.34-3.79-2.57-3.64-7.13.37-14.24.93-21.37,1.34a30.28,30.28,0,0,1-4.45-.26c-5.45-.51-10.91-.93-16.34-1.64a84.25,84.25,0,0,1-13.64-2.5c-4.14-1.27-5.35-4-4.43-8.28a39.21,39.21,0,0,1,7.37-15.65A52.31,52.31,0,0,1,697.05,620a101.26,101.26,0,0,1,21.43-9.22c11.54-3.6,23.43-2.9,35,.19,7.08,1.89,13.62,5.3,18.08,11.69,1.32,1.89,3.29,3.3,4.85,5,4.26,4.73,7,10.13,6.87,16.65-.14,5.88-3.51,10-8.2,12.85a43.64,43.64,0,0,1-10.65,4.18,16.88,16.88,0,0,0-8.71,5.5c-4.12,5-8,10.21-12.28,15-7.64,8.5-14.49,17.71-23,25.4-4.33,3.88-8.29,8.18-12.32,12.38a8.92,8.92,0,0,0-2.57,8.24q1,5.16,1.85,10.33c.49,2.94,1.09,5.89,1.32,8.87a13.92,13.92,0,0,0,4.39,9.63c5.78,5.57,8.73,12.85,10.51,20.59a7.19,7.19,0,0,1,0,3.45c-1.47,5.11-3,10.2-4.71,15.23a6.55,6.55,0,0,1-2.41,3.09c-3.14,2.1-6.44,4-9.69,5.88a5,5,0,0,1-1.86.72c-5.53.69-11.06,1.31-16.59,2-1.12.14-2.52,0-3.29.62-4.6,3.66-9.27,1.57-13.67,0-2.67-1-3.53-3.84-3.18-6.74.14-1.16.6-2.28.64-3.43.06-1.64-.17-3.25-2.53-2a4.37,4.37,0,0,1-.9.43c-1.54.45-3.26.52-3.86-1.17s1.08-2.14,2.37-2.44c2.76-.65,2.17-2.14.79-3.53-3.75-3.79-3.52-8.57-2.86-13.11,1-6.84,4.08-13,7.61-18.9,2.93-4.89,6.36-6,11.84-4,4.1,1.51,8.23,1,12.35.68a3.18,3.18,0,0,0,2.25-2.1c.37-5,.95-10-1-14.8-1.18-2.89-2.56-3.57-4.92-1.65-9.18,7.46-20.59,8.26-31.4,10.47-6.28,1.28-12.85.16-19.15-2.11a124.51,124.51,0,0,1-19-8.56c-2.75-1.56-4.4-.82-4.42,2.14-.06,9.29-1.07,18.62,1.16,27.84,2,8.35,4.25,9.52,12.27,6,3.19-1.4,6.36-2.88,9.54-4.3,3.87-1.73,6.55-1.31,9.46,1.76a18.39,18.39,0,0,1,3.56,4.77c2.46,5.45,4.87,11,6.85,16.59,2.19,6.25.49,11.87-4.38,16.25a9.78,9.78,0,0,0-3.67,7.64c-.3,7.77-6.57,12.66-14.53,12.46a20.62,20.62,0,0,0-7.23,1.52c-4.71,1.68-8.5.87-11.33-3.41-1.3-2-3.18-2.58-5.47-2.94-10.41-1.68-16-8.23-16.06-19a97.64,97.64,0,0,1,1.14-13.86A31.29,31.29,0,0,0,595.93,776a48.43,48.43,0,0,1-.93-21.22c1.28-7.55,2.48-15.1,3.79-22.64.64-3.75-.61-6.33-3.94-8.32-7.13-4.26-13.85-9.08-21.44-12.7-7.75-3.7-14.78-8.94-22-13.64-2.47-1.61-5.07-2-7.93-2.46q-16.26-2.44-32.4-5.7c-4.07-.82-7-3.77-9-7.43a6.73,6.73,0,0,0-.91-1.1c-.3.51-.85,1-.88,1.55-.17,2.83-.2,5.66-.29,8.49-.07,2.13.23,4.28-1.82,5.94a3.2,3.2,0,0,0-.4,3.07c4.35,6.42,6.86,14.15,13.54,18.94,5.87,4.21,12.05,8,19.05,9.61,5.46,1.26,11.24,1.14,16.87,1.68,5.12.48,10.23,1.23,15.37.09a6.53,6.53,0,0,1,3,.09c.64.18,1.14.91,1.7,1.39-.5.39-1,1.09-1.49,1.11-7.13.33-14.26.64-21.39.77-2.82,0-5.64-.52-8.46-.55-15.42-.11-27.83-6.79-37-18.65a57.56,57.56,0,0,1-10.37-21.42,16.07,16.07,0,0,1-.18-5.91c.33-2.29,1.63-4.21,4.3-4,2.91.25,3.4-1.35,3.38-3.63,0-1,0-2,0-3q-.06-27-.15-54c0-2.5,0-4.93,1.67-7.12a3.33,3.33,0,0,0,0-3.17c-.49-.64-2.06-.83-3.06-.66-5.41,1-10.78,2.14-16.17,3.18a17.69,17.69,0,0,1-4,.4c-1.85-.06-2.46-1.21-1.35-2.6a22.1,22.1,0,0,1,3.26-3.07c3.31-2.75,6.65-5.46,10-8.2,1.66-1.37,3.35-2.73,5-4.18,2.52-2.26,2.63-3.34,1.48-6.59-1.56-4.39-3.21-8.77-4.33-13.27-1.25-5,.73-6.68,5.57-4.93a18,18,0,0,1,4.29,2.46c2,1.48,3.87,3.15,5.82,4.71,3.35,2.69,3.16,2.4,6.63,0A133.86,133.86,0,0,1,523.1,572a6.13,6.13,0,0,1,3.37-.53c3.15.32,4,1.92,2.65,4.73-1.71,3.43-3.6,6.77-5.28,10.21a20.35,20.35,0,0,0-1.83,5.14c-.62,3.4.17,6.23,3.75,7.79a82.79,82.79,0,0,1,7.54,3.91c1.27.72,3,1.65,2.07,3.37-.46.83-2.2,1.32-3.38,1.35-4.16.09-8.32-.12-12.48-.14-3.88,0-4,.37-4.65,4.16A108.14,108.14,0,0,1,512,625.57c-1.45,4.84-3.95,5.17-7.45,1.41a11.87,11.87,0,0,0-1.3-1.5,14.6,14.6,0,0,0-2.09-1.15,10.67,10.67,0,0,0-1.15,2.51,19.32,19.32,0,0,0-.1,3.49q0,9.75,0,19.5ZM656.51,743.1c8.64-.11,16.71-2.76,24.64-5.83,3.17-1.23,3.64-2.65,2.45-6.51-2.22-7.16-4.11-14.49-7.14-21.3a91.94,91.94,0,0,0-10.58-17.94c-4.27-5.66-9.63-10.5-14.52-15.69-1.14-1.22-.9-2.62.79-2.92a7.62,7.62,0,0,1,4.22.51,12.51,12.51,0,0,1,3.42,2.86c5.17,5.4,10.27,10.88,15.47,16.27,1.84,1.91,4,3.56,5.79,5.48a73.74,73.74,0,0,1,17.11,29.56,19.46,19.46,0,0,0,1.56,3.67c.25.47.95.7,1.45,1a6.75,6.75,0,0,0,.48-1.81,10.29,10.29,0,0,0-.41-2.45c-3.19-12.79-8.19-24.67-17.74-34.11-5.69-5.61-11.84-10.75-17.4-16.47-6.15-6.31-13.3-11-21.06-15-4.09-2.1-8.77-3.34-11.85-7.18-.84-1.06-1.56-.91-2.1.43-2.27,5.71-4.65,11.36-6.85,17.09a24.45,24.45,0,0,0-.83,4.65c1.88.31,3.76.67,5.66.9.43,0,.91-.53,1.37-.54.91,0,2.29-.14,2.62.35a3,3,0,0,1-.19,2.71,30.75,30.75,0,0,1-4.77,6.36c-4,3.61-4.84,8.2-4.94,13.11a54.74,54.74,0,0,0,.5,7.45c.36,3.14,1,6.25,1.31,9.39.38,4.39-.25,4.93-4.65,5.78-1.11.21-2.81,1.09-2.94,1.88-.2,1.22.6,2.68,1.21,3.93.25.5,1.07.75,1.66,1.05,5.8,2.93,11.49,6.12,17.44,8.69S649.81,743.29,656.51,743.1Zm74.18-87.27c4.38.26,7.71.38,11,.67a10.59,10.59,0,0,1,4.34,1,4.35,4.35,0,0,1,1.91,3.06c.09,1.63-1.39,2.2-2.86,1.82-2.23-.57-3.47.59-4.52,2.22a80.37,80.37,0,0,1-4.58,7.1q-7.2,8.92-14.74,17.57c-5.9,6.77-12,13.37-18,20.11a5.54,5.54,0,0,0,.11,7.68,3.76,3.76,0,0,0,3.05.59c.85-.2,1.55-1.19,2.24-1.9,6.82-7.06,13.83-14,20.38-21.25,7.77-8.66,15.76-17.23,22.46-26.69,4-5.68,8.65-8.34,15.06-9.74,9.93-2.18,13.85-10.55,9.86-19.92-2-4.61-14-17.48-18.31-20.1-6.08-3.67-12.92-4.16-19.66-5.06-6.12-.81-12.31-1.35-18.3.6s-11.68,3.9-17.33,6.31a23.05,23.05,0,0,0-8.23,5.43c-2.29,2.61-6.87,4.83-4.12,9.84.27.5-.42,1.54-.72,2.31-.56,1.39-1.27,2.73-1.72,4.15-1.73,5.42-.48,7.71,5.17,8,4.1.22,8.27-.53,12.38-1,8-1,16-3.37,24.18-.57,1,.35,2.3-.07,3.46-.14,6.14-.35,12.28-1,18.41-.95,5.36.07,10.64,0,15.84-1.38a8.09,8.09,0,0,1,1.94-.44,7.19,7.19,0,0,1,1.85.43c-.41.63-.69,1.51-1.28,1.83a15.25,15.25,0,0,1-5,2.2,100.12,100.12,0,0,1-13.38,1.16c-7.66,0-15.36-.52-22.72,2.18-2.85,1-5.35,1.83-7.6-1.08a3,3,0,0,0-2.32-.67c-4.29.39-8.59.85-12.87,1.45-.59.08-1.07,1-1.61,1.56.49.41.91,1,1.47,1.2a28.45,28.45,0,0,0,12.79,1.42C723.09,656.32,727.41,656.09,730.69,655.83Zm-198.5,34c4.79-.45,9.3-.67,13.68-2.9,2.42-1.23,5.46-1.2,8.17-2,2.21-.6,4.65-1.06,6.42-2.36a13.22,13.22,0,0,1,8.85-2.6c8.69.34,16.66-2.86,24.73-5.38a12.68,12.68,0,0,0,4.86-3.36,11.71,11.71,0,0,0,2.4-4.28c.51-1.45-.4-2.27-1.89-1.95a18.68,18.68,0,0,0-2.76,1.14c-5.42,2.08-10.76,4.46-16.31,6.15-9.37,2.85-18.86,5.33-28.34,7.8-2,.54-4.74,1.27-6.27.4-3.31-1.88-6.37-1.2-9.63-.68-3.61.58-7.23,1.06-10.83,1.69a18.57,18.57,0,0,1-10.72-1.52c-1-.44-2.44-2-2.27-2.68.44-1.88,2.29-1.5,3.74-1.12,1,.24,1.81.84,2.76,1.15s2.22,1,2.83.64c3-1.78,5.75.13,8.58,0,3.28-.1,6.52-1.14,9.81-1.5,2.76-.3,5.89-1,8.24-.06a11.29,11.29,0,0,0,7.69.27c7.55-2,15.24-3.69,22.57-6.34s15.65-4,20.38-11.53c.32-.51,1.09-.74,1.62-1.12,2.54-1.81,3.23-3.18,1.94-5.8-.91-1.82-2.38-3.87-4.13-4.7-8.79-4.16-17.15-9.37-27.46-9.71-6.13-.2-12.2-1.7-18.17.87a3.47,3.47,0,0,1-2,.2c-4.26-1-7.9.88-11.41,2.72A184.73,184.73,0,0,0,522,651.24a30.33,30.33,0,0,0-14,23.66c-.53,6.7,1.6,10,8.14,11.76C521.39,688.07,526.83,688.83,532.19,689.88Zm68.88,108.51c-.38,4.8,1.17,9,3.57,12.88,2,3.27,4.9,5.56,8.87,5.75a10.55,10.55,0,0,1,8.81,4.68c2.32,3.25,4.5,3.39,7.58.93a5.71,5.71,0,0,1,5.54-1.13,13.48,13.48,0,0,0,3.94.49,6.27,6.27,0,0,0,6-7.89c-.2-1-.56-1.92-.78-2.89-.49-2.09.24-3.36,2.26-4.34,5.64-2.74,7.58-6.38,6.46-12.47a43.22,43.22,0,0,0-2.8-8.48A106.4,106.4,0,0,0,645,773.67c-2-3.55-3.78-3.87-7.53-2.3-3.07,1.28-5.94,3.12-9.08,4.14-11.29,3.67-14.37,5.24-17.46-8.76a67.29,67.29,0,0,1-1.41-20.35c1.8-19.51,2.7-39.26,10.7-57.66.6-1.37.26-3.15.35-4.73a21.69,21.69,0,0,0-3.11,3.57c-5,9.15-7.45,19.25-10.2,29.18a236.22,236.22,0,0,0-6.8,34.74c-1,8.31-1.39,16.61,1.49,24.7,1.8,5,4.46,9.28,9.93,11.11,1,.32,1.64,1.42,2.45,2.16-.89.91-1.62,2.25-2.69,2.61a7.43,7.43,0,0,1-4.28-.06c-4.82-1.49-5.87-.92-6.29,4C601,796.82,601.07,797.66,601.07,798.39Zm18.34-223.94,0-.47c1.49,0,3.09.33,4.47-.07a55.56,55.56,0,0,0,9.71-3.57c2.33-1.18,2.4-3.44.86-5.54-1.38-1.9-3-1.82-4.75-.61a45.26,45.26,0,0,1-4.59,3c-3.42,1.76-7.8,1.07-10.08-1.67a3.27,3.27,0,0,1-.5-3c.42-.7,1.87-.85,2.91-1,.39-.07.9.37,1.31.65,3.31,2.29,6.37,1.26,9.23-.82,4.12-3,6.88-6.92,6.85-12.14a64.84,64.84,0,0,0-1.09-13.37A21,21,0,0,0,629.4,527c-5.83-6.88-15.37-5.17-18.83,3.14a20,20,0,0,0-1.47,5.27c-.44,4-.59,8-.89,11.93a32.81,32.81,0,0,1-.59,5.44c-.18.69-1.32,1.14-2,1.7-.41-.66-1.07-1.29-1.17-2-.17-1.13.23-2.34.05-3.47a6.21,6.21,0,0,0-1.24-3.12c-2.3-2.56-7.79-3.44-10.62-1.34a73.31,73.31,0,0,0-8.39,7.78c-.51.52-.31,1.76-.44,2.67a7.92,7.92,0,0,0,2.47-.74,32,32,0,0,0,2.42-2.51c2.42-2.19,4.55-2.59,7.22-.76a27.13,27.13,0,0,1,5.39,5.1,3.18,3.18,0,0,1,.07,3.09,3.28,3.28,0,0,1-3,.48,24.86,24.86,0,0,1-4.13-2.74c-3.41-2.32-5.21-2.13-7.37,1.48-1.13,1.89-1.44,4.29-2.07,6.47-.52,1.79-1.44,2.12-2.83.88a6.83,6.83,0,0,1-.86-1.22c-1.13-1.62-1.87-.85-2.41.46-.95,2.35-.24,4.48.67,6.73.39,1,0,3.11-.6,3.44a4.94,4.94,0,0,1-4-.12c-1.39-.76-2.24-2.45-3.55-3.45-2.35-1.79-5.19-2.69-8-1.63s-2.93,3.86-3,6.38c-.13,3.08.91,3.74,4,2.76,1-.3,1.86-.76,2.82-1,8.33-2,16.71,4.76,15.95,12.73A7.11,7.11,0,0,1,576,596.8c-3,0-4.69-1.89-5.15-5.61-.1-.82,0-1.67-.13-2.49a2.78,2.78,0,0,0-3-2.67c-1.21.1-2.84.64-3.41,1.53a3.74,3.74,0,0,0,.36,3.53c3.51,3.74,7.2,7.31,11,10.8,2.37,2.2,5.39,2.34,8.47,2.1,2.55-.2,3.48-2.14,4.77-3.91,2-2.77,3.65-2.34,5.55.73,2,3.23,4.25,6.31,6.54,9.34,2,2.66,4.15,5.21,6.34,7.72,1.6,1.83,3.39,3.51,5.1,5.26.61-3-1.5-5-3.1-6.9-9.6-11.47-16.54-24.52-22.93-37.91a49.92,49.92,0,0,1-2.59-5.37c-.38-1.13-.54-2.85.07-3.64s2.32-.81,3.46-.63,2.41,1.11,3.67,1.52a38.57,38.57,0,0,0,6.19,1.76c4.43.7,8.9,1.18,13.36,1.67C613.45,574,616.43,574.18,619.41,574.45ZM677.79,773h-.19a31.76,31.76,0,0,1-.08,5c-.13.82-1,1.52-1.62,2.27a10.5,10.5,0,0,1-1.91-1.85c-.88-1.39-1.38-3-2.35-4.35-1.63-2.18-2.91-2-3.94.36a11.28,11.28,0,0,0,4.58,14.36c.71.43,1.49.74,2.18,1.2,2.92,1.92,2.93,2.41,1.15,5.5a13.92,13.92,0,0,0-1.7,4.59c-.6,3.81,2.11,6.52,6,5.72,1.38-.28,2.68-1.69,3.7-2.86,2.67-3.06,3.45-3.37,6.45-.8,2.17,1.87,4,1.82,6.25.32,1.32-.87,3.21-1.83,4.58-1.52,3.43.77,5.73-.53,8-2.74a8.23,8.23,0,0,1,3.07-1.62c2.6-.91,3.94-2.88,5-5.24,4.51-10,.93-19-4.78-26.53a3.33,3.33,0,0,0-2.47-1.34c-3.34.51-3.41-1.56-3.62-3.9-.36-3.81-.9-7.59-1.42-11.38-.06-.41-.51-.76-.77-1.15-.25.34-.65.65-.72,1-.71,3.93-1.23,7.89-2.14,11.77-.29,1.28-1.53,2.33-2.34,3.49-1-.72-2.39-1.23-2.9-2.21-1.29-2.45-3.13-3.1-5.74-3a47.27,47.27,0,0,1-9.88,0c-5-.79-7.06.09-8.68,4.75-1.11,3.17-.47,4.15,3,4.58s3.58.45,3.43,4.09C677.88,772.05,677.83,772.55,677.79,773Zm-18.91-145.1c11.48-.13,18.29-10.59,14.08-19.84-4.39-9.68-12.82-14-22.59-16.29a13,13,0,0,0-4.47.19,8.64,8.64,0,0,0-2.17.91c.53.74.9,1.76,1.62,2.18,3.59,2.14,7.23,4.16,9.8,7.6,1.21,1.61,3,3.39,1.08,5.23s-3.6-.29-5.06-1.48c-2.06-1.68-3.88-3.66-6-5.22-6.3-4.61-13.31-3.31-20.2-2a14.5,14.5,0,0,0-8.79,5.38,4.09,4.09,0,0,0-.62,3.55,4.16,4.16,0,0,0,3.25,1.59,20.58,20.58,0,0,0,5.36-1.08c5.09-1.41,9.2.5,12.72,3.91a21.42,21.42,0,0,1,3.91,5.16C645,625.55,652.49,626.91,658.88,627.94Zm-151.76-8.23a6.17,6.17,0,0,0,1-1.65,34.26,34.26,0,0,0,.9-5.39c.34-6,1.72-7.6,7.52-8.44,1-.14,2,0,3-.14a6.2,6.2,0,0,0,1.61-.76c-.34-.52-.57-1.3-1-1.53-5.14-2.49-4.39-6.95-3.68-11.25a17.17,17.17,0,0,1,1.92-4.58c1.12-2.23,2.38-4.39,3.49-6.63.26-.53.35-1.71.18-1.79a3.12,3.12,0,0,0-2.24-.27,25.89,25.89,0,0,0-4.53,3c-1.27,1.05-2.23,2.49-3.49,3.56-3.37,2.86-7,2.84-10.39.11-1.61-1.3-2.87-3.37-5.47-2.55.34,2.05.67,4.1,1,6.15a2.08,2.08,0,0,0,.22.45c2.49,5.25,2,7-2.36,10.57a103.16,103.16,0,0,0-7.71,7.07,17.93,17.93,0,0,0-2.2,3.68c1.59.08,3.25.47,4.76.15a18.2,18.2,0,0,0,4.44-2.11c1-.56,1.89-1.4,2.94-1.86,2.78-1.23,4.45-.51,5.35,2.41.69,2.22,1,4.55,1.65,6.79a25.35,25.35,0,0,0,1.71,4.1C505.89,619.18,506.49,619.33,507.12,619.71Zm51.14,67.35c-2.3.44-4,.63-5.55,1.11a9.16,9.16,0,0,0-2.26,1.56,9.14,9.14,0,0,0,1.61,1.72q12,7.5,24.13,14.91c7.23,4.41,14.49,8.76,21.74,13.13,1.09.66,2.3,1.94,3.42.34s.22-2.9-1-3.93a28.28,28.28,0,0,0-2.54-1.56c-3.89-2.54-7.87-5-11.64-7.69-8.21-5.9-16.3-12-24.49-17.91A19.2,19.2,0,0,0,558.26,687.06Zm63.49-55.65s-1,.13-1.06.48a2.28,2.28,0,0,0,.57,1.72,37.16,37.16,0,0,0,4.22,4.86c.87.76,2.49,1.48,3.46,1.18a89.61,89.61,0,0,0,11-4.25c1.22-.57,2.13-2,2.91-3.24s1-2.82-.43-4a3.36,3.36,0,0,0-4.53-.26c-.66.49-1.25,1.09-1.9,1.58a12.12,12.12,0,0,1-9.76,2.6C625,631.84,623.66,631.69,621.75,631.41ZM636.92,576c.67,3.59,1.11,6.71,1.88,9.75.72,2.85,1.69,3.11,4.81,2.33,2.5-.62,2.5-2,1.91-4.09-1.12-4-2-8-3-12a11.19,11.19,0,0,0-.75-2.36c-.63-1.24-1.72-1.2-2.25-.12C638.45,571.72,637.68,574.06,636.92,576Zm-5.44,67c-.52.21-1.34.36-1.36.57a34.38,34.38,0,0,0,0,4.65c0,.37.56.7.86,1a35.15,35.15,0,0,0,1.57-3.35,3.34,3.34,0,0,0,0-1.93C632.4,643.62,631.85,643.36,631.48,643Zm-51.82-52.38c-.64-.61-1-1.15-1.5-1.37-.33-.14-.87.17-1.31.28a11.14,11.14,0,0,0,1.31,1.72C578.28,591.38,578.91,591,579.66,590.64ZM638,556.9c-.2.16-.59.38-.56.48a2.74,2.74,0,0,0,.52.75c.19-.16.57-.38.55-.48A2.93,2.93,0,0,0,638,556.9Z" transform="translate(-472.48 -437.27)"/><path d="M749.93,579.58a51.62,51.62,0,0,1,20.93,3.74c2.53,1,4.65,3.11,6.81,4.89s3.81,3.74,5.91,5.36,3.53,1.15,3.6-1.47c.15-5.81.05-11.62,0-17.43,0-1.66-.24-3.32-.25-5-.07-17.16-.1-34.32-.18-51.49a11.23,11.23,0,0,0-.44-2.24c-.67.42-1.33.87-2,1.26-3.47,2-4.51,5-4.13,8.86a23.46,23.46,0,0,1-.11,6c-.44,2.75-3,3.63-5.26,1.92-.52-.39-.84-1-1.33-1.48-2.29-2-4.08-2.2-6.73-.45-2.36,1.55-4.61,3.27-7,4.77a3.44,3.44,0,0,1-2.68.56c-.59-.28-.94-1.61-.93-2.48a15,15,0,0,1,.6-5.43c1.61-4,.08-7-2.17-10.08-2.83-3.93-2.46-5.62,2.16-6.73,5.33-1.27,7-4.9,8.21-9.48a24.79,24.79,0,0,1,3.19-7.14c1.06-1.62,2.56-1,3.13,1,.83,2.85,1.57,5.74,2.64,8.51,1.68,4.33,2.47,4.74,7.14,4.43a14.25,14.25,0,0,0,3.43-.59c1.53-.5,3.39-.85,2.68-3.31-.6-2-1.27-3.84-3.91-3.71a35.48,35.48,0,0,1-5.92,0c-.64-.08-1.12-1.34-1.68-2.06.65-.44,1.29-1.24,2-1.26,3.32-.09,6.66-.12,10,.11,2.44.17,3.34,2,3.25,4.24-.07,2,.23,4.13-.49,5.86-2.24,5.42.28,10.75-.08,16.13s.31,10.64.45,16c.12,4.33.17,8.66.18,13,0,12.34.14,24.67,0,37,0,3.37.07,6.23,3.57,8,1.53.76,1.78,2.31-.28,2.72-2.6.53-3.2,2.17-3.09,4.34.22,4.47.6,8.93.83,13.4.17,3.12.32,6.25.25,9.37,0,1.57.11,2.68,2,2.63,2.54-.06,3.38,1.58,4,3.67,1.07,3.68,2.48,7.26,3.35,11,1.19,5-.77,9.59-3.05,13.81a77.44,77.44,0,0,1-7.08,10.17,5.12,5.12,0,0,0-1,5,16.11,16.11,0,0,1,.29,5.42c0,.53-1,1-1.6,1.51a6.06,6.06,0,0,1-1.17-1.45c-.23-.59,0-1.36-.23-2-.37-1-.87-2.58-1.43-2.63a3.73,3.73,0,0,0-2.87,1.42,73.25,73.25,0,0,0-4,6.85,18,18,0,0,1-1.23,2.7,2.42,2.42,0,0,1-2.06.8,2.21,2.21,0,0,1-.93-1.94c.69-2.9,1.51-5.67,3.9-7.88,3.29-3,6.28-6.43,9.32-9.72,1.61-1.74,2-3.25.32-5.64-1.3-1.8-1.44-4.7-1.42-7.11.08-10.31.52-20.62.6-30.93,0-4.64-.67-9.29-.72-13.94a31.93,31.93,0,0,1,.95-7.84c.41-1.73.21-3.12-1.56-2.33-5.35,2.38-7.81-1.22-9.84-4.74-5.2-9-13.24-12-23.06-12-2.81,0-5.62-.34-8.43-.43A23.91,23.91,0,0,0,734,585.46c-.66.3-1.75-.3-2.64-.49.52-.71.88-1.77,1.57-2.09A36,36,0,0,1,749.93,579.58Zm30.74-64.34c-.33-.27-.74-.89-1.27-1A12.84,12.84,0,0,0,776,514c-2.79.16-4.87-.57-5.67-3.59-.17-.65-1-1.13-1.49-1.69-.49.63-1.24,1.18-1.43,1.89-.72,2.65-2.16,4.28-5,4.76-2.37.4-2.44,2-1.11,3.65a6.85,6.85,0,0,1,1,7.84c-.45,1,0,2.41.11,3.63a17.08,17.08,0,0,0,3.63-1c2.18-1.16,4.07-3.11,6.36-3.77,5-1.46,4.8-7.07,8.3-9.62C780.68,516,780.63,515.72,780.67,515.24Zm14.39,139.22c-.53-5.28-.85-9.22-1.37-13.14-.11-.83-.93-1.57-1.43-2.36a20.4,20.4,0,0,0-1.14,2.95,2.76,2.76,0,0,0,.33,1.91c1.95,2.91,1.74,5.54.29,8.8-.93,2.11,0,5,.15,7.62,0,0,.4.11.41.07C793.41,658,794.49,655.69,795.06,654.46Z" transform="translate(-472.48 -437.27)"/><path d="M754.26,792.89c8.83,0,17.66,0,26.49,0,6.65,0,7-.19,6.91-7.07-.1-10.47-.39-20.93-.46-31.39q-.15-23.71-.06-47.42c0-4,.58-8,.8-11.93a7.71,7.71,0,0,0-.62-2.31c-.88.29-2,.34-2.62.92-6.43,6-13.79,10.88-19.67,17.59-2.83,3.24-7.19,5.19-11,7.56-2.94,1.85-6.1,3.35-9,5.21a14.52,14.52,0,0,0-3,3.17c-.61.75-.85,2-1.6,2.4s-1.74,0-2.64-.06c.1-.75-.07-1.77.36-2.21a45.65,45.65,0,0,1,6.23-5.74c3.63-2.56,7.67-4.53,11.27-7.11,8.64-6.21,17.21-12.52,24.6-20.23,1.59-1.66,2.5-3.93,4-5.71.76-.91,2.1-1.34,3.18-2a12.71,12.71,0,0,1,1.44,2.94c.6,2.8,2.45,4.93,2.74,8.16.63,7.15.2,14.26.46,21.37.26,6.81.57,13.61.63,20.42,0,4-.6,8-.54,11.94.11,7,.67,13.94.77,20.92s-.08,14.27-.22,21.4c0,2.31-3.76,4.88-6.72,4.72a37.07,37.07,0,0,1-5.46-.6c-6.94-1.42-13.87-1-20.85-.28-2.41.26-4.92-.5-7.4-.56-4.83-.11-9.66-.07-14.49,0-1,0-2.33-.21-2.92.32-4.49,4.05-7.94-.8-11.87-1.31-.47-.06-1-1.17-1.11-1.85-.05-.29.88-1,1.44-1.08a33.31,33.31,0,0,1,4.47-.26q13.25,0,26.49,0Z" transform="translate(-472.48 -437.27)"/><path d="M618.79,443.15a9.87,9.87,0,0,1,2,1.6c1.74,2.22,3.33,4.57,5,6.82,1,1.33,2,2.62,3.15,3.84a3.79,3.79,0,0,0,4.94.88c4-1.93,8.06-3.72,12.11-5.52.4-.18,1.17-.24,1.37,0,.38.45.81,1.29.63,1.71a20.24,20.24,0,0,1-2.55,4.8c-4.13,5.12-4.5,10.47-1.67,16.3a40.73,40.73,0,0,1,2.43,6.54c1,3.68-.66,5.51-4.35,4.76-2.12-.44-4.18-1.13-6.29-1.53a4.93,4.93,0,0,0-6,3.19,64.22,64.22,0,0,1-2.92,6.86c-.54,1-2,1.41-3,2.09a30.44,30.44,0,0,1-1.59-2.91,7,7,0,0,1-.25-2c-.45-4.56-2.35-7.79-7.23-8.9a53.19,53.19,0,0,1-8.94-3.11c-1.06-.45-2.43-1.67-2.47-2.59s1.32-2.15,2.36-2.66c2.82-1.4,5.81-2.44,8.71-3.7,3.92-1.69,4.13-2.38,3.44-6.44-.89-5.23-1.59-10.5-2.25-15.77C615.1,444.94,616.57,443,618.79,443.15Zm15.52,35c4.51.07,4.73-.17,3.45-4.5-.87-2.92-1.45-5.8-.23-8.75a12.85,12.85,0,0,0,1-2.28c.19-.91.41-2.54.08-2.69a4.77,4.77,0,0,0-3.16-.22,18.31,18.31,0,0,0-4,2c-2,1.19-3.74,1.14-5.33-.65a3.7,3.7,0,0,0-1-1,13.66,13.66,0,0,0-2.21-.63,13.45,13.45,0,0,0-.32,2.33,11.22,11.22,0,0,0,.45,1.93c.85,4.4.35,5.45-3.64,7.52a18.42,18.42,0,0,0-2.23,1.09c-1.18.82-2.28,1.77-3.41,2.66a21.9,21.9,0,0,0,4,2.42c2.46.87,5,1,6.59,3.83,1.32,2.39,2.25,2.33,3.92-.13S631.69,477.59,634.31,478.14Z" transform="translate(-472.48 -437.27)"/><path d="M547,792.72h39a15.31,15.31,0,0,1,4,.2c.77.2,1.32,1.17,2,1.79-.66.66-1.21,1.66-2,1.89a14.44,14.44,0,0,1-4,.28c-18.31,0-36.63.49-54.92-.18-9-.34-17.91.37-26.86.2-6.42-.13-6.91-.36-7.38-6.55-.29-3.77,0-7.6,0-11.4,0-10.3.16-20.6.08-30.9-.06-7.64-.39-15.29-.6-22.93a2.1,2.1,0,0,1,0-.5c.23-1.55-.29-4,1.84-4s1.91,2.37,1.94,4q.45,29.94.82,59.89c.08,7.7,0,7.75,7.69,7.77,12.81,0,25.62,0,38.43,0Z" transform="translate(-472.48 -437.27)"/><path d="M516.9,445.6c1.34,1.25,2.79,2,3.31,3.18,1.85,4.25,3.3,8.67,5.09,13a89.19,89.19,0,0,0,5,10.75c1.71,2.94,2.51,2.84,5.48.77,2.19-1.53,2.15-1.33,3.09,1.29a107.76,107.76,0,0,0,5.25,12.27,7.1,7.1,0,0,0,3.76,3c3.83,1.38,5.78,4.08,7,7.8,1.41,4.24,3.24,8.34,4.88,12.51.48,1.22,1.39,2.78-.27,3.43a3.59,3.59,0,0,1-3.32-1.08,39.93,39.93,0,0,1-4-9c-1.08-4.11-2.54-7.37-7-8.79-4.22-1.34-5.78-5.37-7.3-9-1.16-2.82-2.22-4.82-5.81-5-1.65-.08-3.78-1.71-4.71-3.23a94.05,94.05,0,0,1-5.71-11.51c-1.52-3.48-2.56-7.18-4.09-10.66-.64-1.45-2-2.58-3-3.89-.64-.82-1.84-2.3-1.69-2.46A32.68,32.68,0,0,1,516.9,445.6Z" transform="translate(-472.48 -437.27)"/><path d="M548,530.94c-1.95-.48-3.23-.86-4.54-1.11q-11.46-2.25-22.94-4.44c-3-.58-6-1-6-5.21,0-1.88-1.86-2-3.31-2.39q-8.11-2.32-16.2-4.81c-2.62-.81-3.34-2-2.64-3.84a3.41,3.41,0,0,1,4.65-2.25c5.65,1.83,11.31,3.67,17,5.37,2.79.84,5.31,1.65,6.3,4.93.3,1,1.76,2,2.89,2.34,2.2.71,4.55.94,6.82,1.43,5.34,1.15,10.68,2.27,16,3.55a7,7,0,0,1,3.39,1.91,3.62,3.62,0,0,1,.71,3.08C549.9,530.28,548.51,530.65,548,530.94Z" transform="translate(-472.48 -437.27)"/><path d="M604.08,502.84H566.14a16.36,16.36,0,0,1-4-.19c-.8-.2-1.41-1.12-2.1-1.72.67-.59,1.24-1.48,2-1.7a13.33,13.33,0,0,1,3.47-.16c7.16,0,14.32,0,21.47,0,2.61,0,4.68-.31,6.24-3,1.87-3.24,3.42-3,4.88.6.82,2,2.15,2.32,3.87,2.33,3.33,0,6.66,0,10,0,10.48,0,21-.05,31.45,0a15.67,15.67,0,0,1,3.92.51,1.92,1.92,0,0,1,1.08,1.44,1.88,1.88,0,0,1-1,1.48,26.24,26.24,0,0,1-4.92.51q-19.23,0-38.45,0Z" transform="translate(-472.48 -437.27)"/><path d="M671.68,502.83a45.12,45.12,0,0,1-6.48-.09c-1.06-.16-2-1.27-3-1.95.89-.6,1.81-1.76,2.65-1.71,5.38.31,11-1.56,16.12,1.33,1.57.88,2.55-.2,3.29-1.33,1.17-1.81,2.25-3.69,3.27-5.6,2-3.74,4.49-6.85,8.51-8.76,1.65-.78,2.84-2.71,4-4.29,3.64-5,7.14-10,10.74-15,.82-1.13,1.76-3.19,3.37-2s-.21,2.49-1.05,3.65c-4.15,5.81-8.28,11.64-12.34,17.51-1.71,2.46-3,5.23-4.91,7.52-1.64,2-3.87,3.45-5.83,5.16a25.92,25.92,0,0,0-3.66,3.24c-8.21,10.46-16.33,21-24.48,31.5a4.7,4.7,0,0,1-1.37,1.4,2.72,2.72,0,0,1-1.74,0,1.64,1.64,0,0,1,0-1.3c1.1-1.67,2.24-3.31,3.48-4.87,5.38-6.76,10.82-13.46,16.17-20.25a13,13,0,0,0,1.31-3.06,14.21,14.21,0,0,0-3.05-1,48.83,48.83,0,0,0-5-.05Z" transform="translate(-472.48 -437.27)"/><path d="M548,753c-3.74-.76-10.49-1.78-17-3.58-7-2-13.93-4.54-20.83-7-3.24-1.17-4.41-2.87-3.64-4.46s2.65-1.55,5.77-.44c8.77,3.11,17.59,6.06,26.44,8.92,15,4.86,29.6,2.46,44-2.71,1.5-.54,3.75-1.76,4.4.16.7,2.1-2,2.14-3.41,2.65A104.32,104.32,0,0,1,548,753Z" transform="translate(-472.48 -437.27)"/><path d="M713.13,600.11c1.78-1.37,3.38-3.2,5.38-4a92.64,92.64,0,0,1,14.16-4.64,42.18,42.18,0,0,1,11.81-.87c4.44.29,8.8,1.6,13.23,2.18,6.75.88,10.65,5.74,14.67,10.34.8.91.75,2.89.5,4.26a3.68,3.68,0,0,1-2.22,2.18c-.44.17-1.62-.91-2.06-1.66-4-6.81-9.39-11.34-17.66-11.76a43.07,43.07,0,0,1-7.39-1.09A29.53,29.53,0,0,0,726,596.66c-4.16,1.57-8.66,2.24-13,3.31Z" transform="translate(-472.48 -437.27)"/><path d="M745.65,502.77c-2.86-.47-7.45,1-11.66-1.45-.53-.32-2,.69-2.91,1.32-1.88,1.35-3.63,2.9-5.5,4.28a5,5,0,0,1-1.8.45c.11-.73,0-1.72.37-2.14,2.89-3,5.78-5.92,8.9-8.62Q747.53,484,762.2,471.69a16.81,16.81,0,0,1,4.16-2.52c.4-.18,1.27.7,1.93,1.09a6.44,6.44,0,0,1-1,1.54c-9.34,7.67-18.73,15.28-28,23-.88.73-1.27,2.07-1.88,3.12a15.29,15.29,0,0,0,3.64,1c5.32.1,10.64,0,16,0,1.38,0,3.47-.39,3.47,1.66,0,.72-2.12,1.94-3.34,2.05C753.83,503,750.48,502.77,745.65,502.77Z" transform="translate(-472.48 -437.27)"/><path d="M521.1,499h17.47c1,0,2-.05,3,0,1.6.09,3.89-.26,3.84,2s-2.39,1.82-3.95,1.83c-11,.06-22,0-32.94.1a79.85,79.85,0,0,0-9.38.81c-1.53.2-2.7.09-3-1.61a2.26,2.26,0,0,1,2.06-2.86,20.09,20.09,0,0,1,3.48-.19c6.48,0,13,0,19.46,0Z" transform="translate(-472.48 -437.27)"/><path d="M505.64,548.85a25.81,25.81,0,0,1,4.68.36c.8.22,1.41,1.14,2.11,1.75-.63.65-1.16,1.69-1.91,1.88a59.22,59.22,0,0,1-6.4,1c-1,.14-2,.16-3,.35-2.11.42-3,1.35-2.49,3.84a41.59,41.59,0,0,1,.44,8.44c0,1.57.42,3.64-1.86,3.9-.34,0-1.27-2.34-1.38-3.65-.22-2.47,0-5-.05-7.48-.06-3-.58-3.44-3.63-2.71-2.74.66-5.43,1.64-8.21,2.09-1,.18-2.24-.73-3.37-1.14.68-1,1.15-2.69,2.06-3,5-1.66,10.17-3.08,15.32-4.38C500.71,549.45,503.54,549.19,505.64,548.85Z" transform="translate(-472.48 -437.27)"/><path d="M699.66,443.9c-.4.79-.85,2.81-2.1,3.86a47.26,47.26,0,0,1-8.64,5.69c-2.49,1.27-4.84.13-6.68-1.88a4.63,4.63,0,0,1-.53-6,54,54,0,0,1,5.73-7.4c.71-.76,2.33-.9,3.55-.92a28.62,28.62,0,0,1,4.37.58C698.27,438.25,699.69,439.92,699.66,443.9Zm-5.54.86c-.14-1.48-2.62-2.76-4.79-2.42-2,.32-2.7,1.76-2.81,3.51a2.87,2.87,0,0,0,3.28,2.83C692.09,448.53,694.29,446.54,694.12,444.76Z" transform="translate(-472.48 -437.27)"/><path d="M670.23,549.32c-.29-.91-.67-1.5-.56-2a3.66,3.66,0,0,1,1.11-1.61c7.58-6.75,15.08-13.6,22.83-20.15,4.8-4.06,10.69-6.72,14.9-11.62,2.81-3.27,7.43-2.57,10.92-4.44a1,1,0,0,1,.85.3.93.93,0,0,1,0,.87c-2.76,3.14-5.7,6-9.91,7.23a18,18,0,0,0-5.37,2.46c-6.5,4.62-13.18,9-18.75,14.86-4,4.21-8.47,8-12.77,11.92A26,26,0,0,1,670.23,549.32Z" transform="translate(-472.48 -437.27)"/><path d="M706.54,502.89c-4,0-8,0-11.95,0a11.38,11.38,0,0,1-3.39-.53,2,2,0,0,1-.94-1.54,2,2,0,0,1,.92-1.56,8.07,8.07,0,0,1,2.9-.43q12.95,0,25.88.07c1.56,0,4.06-.62,4.19,1.46.14,2.32-2.4,2.29-4.18,2.33-4.48.07-9,0-13.43,0Z" transform="translate(-472.48 -437.27)"/><path d="M706,557.08c-.08,2-2.17,3.59-3.83,2.3-4.28-3.36-7.69-.92-11.46.79s-7.68,3.09-11.56,4.55a6.39,6.39,0,0,1-2.42.33,1.51,1.51,0,0,1-1.09-.81,1.39,1.39,0,0,1,.3-1.31,22.53,22.53,0,0,1,3.45-1.87q8.43-3.63,16.91-7.17a24.78,24.78,0,0,1,4.23-1.43A4.37,4.37,0,0,1,706,557.08Z" transform="translate(-472.48 -437.27)"/><path d="M736.45,742.2c-.34-.93-.93-1.76-.72-2.1a7.81,7.81,0,0,1,2.33-2.52c8-5.09,15.45-11,24.46-14.4,3.54-1.33,6.73-3.62,10.12-5.39.45-.23,1.18.05,1.78.09-.24.58-.31,1.45-.74,1.7-3.57,2.1-7.25,4-10.83,6.12-7.83,4.59-16.44,7.91-23.16,14.31A25.56,25.56,0,0,1,736.45,742.2Z" transform="translate(-472.48 -437.27)"/><path d="M565.81,520.35c.18,1.39.51,2.14.32,2.73-.63,2-1.71,3.95-2.14,6a21.3,21.3,0,0,0,1.62,13.57c.68,1.48,2.3,3.7-.1,4.74-2.2.94-3-1.59-3.77-3.07-4.06-7.3-2.43-14.4,1.06-21.33C563.26,522.11,564.4,521.56,565.81,520.35Z" transform="translate(-472.48 -437.27)"/><path d="M547.37,568.92h-1.49c-3.21-.12-6.37-1.78-6.4-3.65-.06-3,2.63-3.53,4.66-4.37a15.22,15.22,0,0,1,5.25-1.11,3.93,3.93,0,0,1,4.34,3.25,4.13,4.13,0,0,1-2.61,4.81A19,19,0,0,1,547.37,568.92Z" transform="translate(-472.48 -437.27)"/><path d="M560.57,769.38c-4.13-.44-7.12-.6-10.05-1.13-1.68-.31-4.22-.66-3.74-3s2.79-1.71,4.58-1.31c1.29.29,2.57.68,3.87,1a30.86,30.86,0,0,0,15.27-.35c.87-.25,2,.41,3,.65-.77.75-1.43,2-2.33,2.17C567.33,768.23,563.42,768.85,560.57,769.38Z" transform="translate(-472.48 -437.27)"/><path d="M495.9,531.52c0-4-.07-8,.06-11.93,0-.81.83-1.59,1.27-2.38.62.82,1.62,1.57,1.77,2.47a33,33,0,0,1,.13,5.45q0,8.21-.13,16.4a15.68,15.68,0,0,1-.32,3.44c-.12.49-.88,1.17-1.31,1.14a1.84,1.84,0,0,1-1.3-1.21,20.67,20.67,0,0,1-.3-3.94c0-3.15,0-6.3,0-9.44Z" transform="translate(-472.48 -437.27)"/><path d="M584.85,535.63a9.15,9.15,0,0,1-2.08,1.08,4.46,4.46,0,0,1-2.43-.07c-2.8-.89-5.48-1.27-8.12.56-1.1.77-2,.25-1.84-1.14.25-2.84,3.21-5.4,6.62-5.85,2.59-.34,6.38,1.45,7.28,3.44A20,20,0,0,1,584.85,535.63Z" transform="translate(-472.48 -437.27)"/><path d="M547,606.18c-.33,0-.67,0-1,0-2.09-.13-4.1-.65-4.72-2.9s1.06-3.33,2.74-4.15c2-1,4.08-1.78,5.58.86.17.28.39.53.56.82.79,1.29,3.51,1.87,2.22,3.78-.7,1-2.87,1.1-4.39,1.57a3.64,3.64,0,0,1-1,0Z" transform="translate(-472.48 -437.27)"/><path d="M601.5,532.51c-.3.45-.65,1.59-1.36,1.91a3.12,3.12,0,0,1-2.65-.44c-1.7-1.34-3.13-2.76-5.65-2.23-1.61.33-1.9-.93-1.39-2.25.95-2.48,3.65-4.31,5.62-3.86C598.62,526.21,601.49,529.6,601.5,532.51Z" transform="translate(-472.48 -437.27)"/><path d="M580,471c.17.88.71,1.94.39,2.44a5.22,5.22,0,0,0-.64,4.59c.64,2.56-1.21,4.44-3.83,4.53-2.15.09-3.83-1.53-2.93-3.41,1.32-2.76,3.36-5.18,5.17-7.69C578.32,471.19,579,471.24,580,471Z" transform="translate(-472.48 -437.27)"/><path d="M664.36,491.57c-.35-.53-1-1.12-1.14-1.8-.4-2.73,2.94-7.08,5.59-7.41,1.46-.18,2.36.55,2.05,2a10.24,10.24,0,0,1-5.22,6.95A4.85,4.85,0,0,1,664.36,491.57Z" transform="translate(-472.48 -437.27)"/><path d="M658.76,498.48c.19,3.06-2.91,5.91-5.24,5.57-.48-.07-1.21-.24-1.33-.54-.36-1-1-2.55-.61-3a24.81,24.81,0,0,1,5.16-4.18C656.92,496.2,658.32,498,658.76,498.48Z" transform="translate(-472.48 -437.27)"/><path d="M733.63,456.78c-.27,2.32-4.06,5.55-5.84,5-.88-.27-2.21-1.78-2-2.21a7.88,7.88,0,0,1,2.74-3.86c1.06-.65,2.82-.31,4.24-.17C733.13,455.59,733.44,456.51,733.63,456.78Z" transform="translate(-472.48 -437.27)"/><path d="M669,467.94c-.07,2.56-.9,4-2.87,3.93-.92,0-1.8-1-2.7-1.55a32.05,32.05,0,0,1,3.44-3.72C667.06,466.41,668.41,467.58,669,467.94Z" transform="translate(-472.48 -437.27)"/><path d="M585.78,491.49c-1.37,1-2.24,2.13-3,2.06s-2.07-1.37-2-2.05a3.08,3.08,0,0,1,2-2.19C583.51,489.22,584.41,490.43,585.78,491.49Z" transform="translate(-472.48 -437.27)"/><path d="M763.67,696.22c-1.33,1.22-2.82,2.62-4.35,4-.09.09-.53-.21-.8-.33,1.22-1.63,2.43-3.28,3.69-4.88a1,1,0,0,1,.9-.16C763.31,694.9,763.34,695.34,763.67,696.22Z" transform="translate(-472.48 -437.27)"/><path d="M757.2,702.36a44.3,44.3,0,0,1-3.57,3.38c-.14.11-1.07-.78-1.64-1.21,1.15-1,2.28-2,3.49-2.93C755.63,701.48,756.2,701.91,757.2,702.36Z" transform="translate(-472.48 -437.27)"/><path d="M713,600c-1.32,1.42-2.59,2.89-4,4.21-.29.27-1.13,0-1.71-.1.06-.6-.1-1.37.21-1.78a5.76,5.76,0,0,1,5.63-2.19Z" transform="translate(-472.48 -437.27)"/><path d="M652.66,737.85a14.19,14.19,0,0,1-3-1.39c-1.22-.92-1.61-2.39.08-3.14s2.31-2.1,2.93-3.67a9.34,9.34,0,0,1,2-2.8c1.45-1.54,3.49-2.62,5.29-1.43s2.74,3.14,4,4.84c.19.26,0,1-.29,1.36A15.78,15.78,0,0,1,652.66,737.85Z" transform="translate(-472.48 -437.27)"/><path d="M731,625.88a11.06,11.06,0,0,1-1.37,1.86c-1.68,1.35-3.4,2.64-5.14,3.91a3,3,0,0,1-4.11,0c-2.16-1.89-4.53-1.6-7-1a23.51,23.51,0,0,1-5.85,1.07c-4.31-.08-6.55,2.45-8.58,5.71a19.08,19.08,0,0,1-3.65,3.87,1.74,1.74,0,0,1-1.72-.1,1.85,1.85,0,0,1-.15-1.76c2.49-4.11,4.88-8.33,9.11-11a7.45,7.45,0,0,1,3.23-1.13c2.48-.16,5,.36,5.26-3.53,0-.73,2.73-2,4.06-1.86,4.76.54,9.47,1.55,14.17,2.49C729.88,624.55,730.38,625.33,731,625.88Z" transform="translate(-472.48 -437.27)"/><path d="M578.41,643c5.18,0,8.13,2.17,9.62,7.08.45,1.47.67,3,1,4.53a25.78,25.78,0,0,1-4.95-1.35c-4.85-2.43-9.86-3.92-15.34-3.44-4.27.36-8.13,1.63-11,5a18.77,18.77,0,0,1-1.38,1.44c-1,1-2.25,2-3.33.53-.42-.56,0-2.4.61-3a17.62,17.62,0,0,1,5.71-3.75,49.29,49.29,0,0,1,18.5-2.51c.51,0,1-.45,1.58-.69a4.13,4.13,0,0,0-.83-1.11c-.54-.37-1.26-.48-1.78-.86a6.1,6.1,0,0,1-1-1.35,8.7,8.7,0,0,1,1.36-.53A6.82,6.82,0,0,1,578.41,643Z" transform="translate(-472.48 -437.27)"/><path d="M644.22,783.32a14.56,14.56,0,0,1-.58,2.14,10.81,10.81,0,0,0,.17,9.59,4,4,0,0,1,.51,1.9c-.08.75-.32,1.88-.83,2.11a3.51,3.51,0,0,1-2.7-.07,5.74,5.74,0,0,1-1.92-2.2q-2.4-4-4.63-8.09c-.77-1.4-.39-2.87,1.14-3.19a11.65,11.65,0,0,0,5.81-3.48,2.66,2.66,0,0,1,2.23-.19C643.84,782,644,782.89,644.22,783.32Z" transform="translate(-472.48 -437.27)"/></svg>